# xmcd
#
# Track frame offsets:
#	150
#	20851
#	39077
#	53853
#	63304
#	76205
#	86672
#	103623
#	115924
#	128525
#
# Disc length: 2068 seconds
#
# Revision: 0
# Processed by: cddbd v1.5.2PL0 Copyright (c) Steve Scherf et al.
# Submitted via: audiograbber 1.83.01
#
DISCID=7708120a
DTITLE=Hank Williams Jr. - Man Of Steel
DYEAR=1983
DGENRE=Country
TTITLE0=Man Of Steel
TTITLE1=The Air That I Breathe
TTITLE2=Woman On The Run
TTITLE3=She Had Me
TTITLE4=Midnight Rider
TTITLE5=Lovesick Blues
TTITLE6=Queen Of My Heart
TTITLE7=Now I Know How George Feels
TTITLE8=It Just Don't Get It No More
TTITLE9=Orange Blossom Special
EXTD=
EXTT0=
EXTT1=
EXTT2=
EXTT3=
EXTT4=
EXTT5=
EXTT6=
EXTT7=
EXTT8=
EXTT9=
PLAYORDER=
